<svg width="877" height="141" viewBox="0 0 877 141" fill="none" xmlns="http://www.w3.org/2000/svg">
<g clip-path="url(#clip0_2713_3498)">
<mask id="mask0_2713_3498" style="mask-type:luminance" maskUnits="userSpaceOnUse" x="0" y="-31" width="877" height="203">
<path d="M877 -30.4897H0V171.49H877V-30.4897Z" fill="white"/>
</mask>
<g mask="url(#mask0_2713_3498)">
<path d="M877 -30.4897H0V171.49H877V-30.4897Z" fill="white"/>
<path d="M1263.2 -166.02H0V328.073H1263.2V-166.02Z" fill="#4B2EFF"/>
<g filter="url(#filter0_f_2713_3498)">
<path d="M438.555 -262.973H443.874C443.874 -262.973 466.504 -201.07 487.613 -163.069C522.504 -100.258 744.724 156.923 744.724 156.923L680.89 151.449C680.89 151.449 31.0179 289.989 157.8 141.664C284.583 -6.66034 438.555 -262.973 438.555 -262.973Z" fill="url(#paint0_linear_2713_3498)"/>
</g>
<path d="M67.637 107.364C78.2514 107.364 86.8561 98.6512 86.8561 87.904C86.8561 77.1569 78.2514 68.4446 67.637 68.4446C57.0226 68.4446 48.418 77.1569 48.418 87.904C48.418 98.6512 57.0226 107.364 67.637 107.364Z" fill="#2F4050"/>
<mask id="mask1_2713_3498" style="mask-type:alpha" maskUnits="userSpaceOnUse" x="55" y="75" width="25" height="27">
<path d="M79.7785 75.0046H55.4053V101.242H79.7785V75.0046Z" fill="#C4C4C4"/>
</mask>
<g mask="url(#mask1_2713_3498)">
<path fill-rule="evenodd" clip-rule="evenodd" d="M56.6019 75.7789C59.2403 78.9752 62.1364 82.9917 62.605 83.6413C62.6305 83.6759 62.6486 83.7007 62.6593 83.7155C62.9089 84.0601 63.1147 84.3165 63.2712 84.511C63.6195 84.943 63.7224 85.0708 63.5149 85.1887C63.3478 85.2835 63.1748 85.3148 63.0027 85.3148C62.8084 85.3148 62.5885 85.2217 62.4288 85.07C62.316 84.9636 61.5427 83.8424 60.4903 82.2126C59.6858 80.9653 59.0114 79.9306 58.9932 79.9133C58.9504 79.8729 58.9512 79.8746 60.4088 82.4772C61.3237 84.112 61.9495 85.3198 61.9495 85.3965C61.9495 85.5539 61.9067 85.6364 61.7123 85.8532C61.3887 86.2134 61.2438 86.6182 61.1392 87.4575C61.0223 88.3973 60.6929 89.0609 59.7796 90.1978C59.246 90.8631 59.1579 90.9851 59.0237 91.253C58.8532 91.5902 58.8071 91.7798 58.7882 92.2061C58.7676 92.657 58.8071 92.948 58.9446 93.3792C59.0657 93.7559 59.1917 94.0057 59.5137 94.5037C59.792 94.934 59.9526 95.2539 59.9526 95.3784C59.9526 95.4781 59.9715 95.4781 60.4022 95.3808C61.434 95.1484 62.2715 94.7395 62.7425 94.2382C63.034 93.9282 63.1024 93.7568 63.104 93.3322C63.1057 93.0536 63.0958 92.9958 63.0208 92.8359C62.8981 92.5754 62.675 92.3586 62.1834 92.023C61.5394 91.5836 61.2636 91.2291 61.1878 90.7427C61.1252 90.3429 61.1977 90.0618 61.5542 89.3157C61.9232 88.544 62.0146 88.2151 62.0763 87.4369C62.1167 86.934 62.1718 86.7353 62.3168 86.5762C62.4675 86.4105 62.6033 86.3544 62.9764 86.3033C63.5849 86.22 63.9728 86.0634 64.2915 85.7699C64.5681 85.516 64.6834 85.2703 64.7016 84.9018L64.7147 84.6223L64.5607 84.4426C64.0008 83.7913 56.2272 75.267 56.1926 75.267C56.1852 75.267 56.3696 75.497 56.6019 75.7789ZM60.2663 92.7164C60.3931 92.4921 60.3256 92.2052 60.114 92.0643C59.9139 91.9315 59.6034 91.9942 59.6034 92.1673C59.6034 92.2201 59.6331 92.2588 59.6989 92.2926C59.8093 92.3495 59.8175 92.413 59.7302 92.5441C59.6421 92.6768 59.6495 92.7939 59.7508 92.873C59.9139 93.0008 60.1453 92.9299 60.2663 92.7164ZM64.0732 80.5217C63.8237 80.483 63.813 80.4789 63.9308 80.4607C64.1556 80.4261 64.6867 80.4731 65.0532 80.5597C65.9079 80.7633 66.6861 81.2827 67.5162 82.206L67.7369 82.4508L68.0531 82.4006C69.3822 82.187 70.7352 82.3569 71.8658 82.8779C72.1771 83.0222 72.6678 83.3074 72.7296 83.3808C72.7485 83.4047 72.7848 83.5547 72.8087 83.7155C72.8926 84.272 72.8507 84.6982 72.6802 85.0164C72.588 85.1895 72.583 85.2448 72.6448 85.3932C72.695 85.511 72.8334 85.5984 72.9709 85.5984C73.2517 85.5984 73.5547 85.1442 73.6947 84.5135L73.7507 84.2621L73.8611 84.3874C74.4663 85.0716 74.9415 86.0049 75.023 86.6693L75.0444 86.8425L74.9423 86.685C74.7677 86.4146 74.5915 86.2299 74.3667 86.0807C73.9607 85.8128 73.5308 85.7213 72.3936 85.6619C71.3668 85.6075 70.7862 85.5201 70.2098 85.333C69.229 85.0131 68.7349 84.5885 67.5705 83.0626C67.0526 82.3849 66.7331 82.0106 66.4152 81.7081C65.6922 81.0222 64.9824 80.6627 64.0732 80.5217ZM72.961 82.0345C72.9865 81.5803 73.0483 81.281 73.1726 81.0073C73.2212 80.8993 73.2673 80.8111 73.2747 80.8111C73.2813 80.8111 73.2608 80.8911 73.227 80.9883C73.1372 81.2538 73.1224 81.6165 73.1842 82.0395C73.2632 82.5753 73.3077 82.6528 73.8751 83.2316C74.1419 83.5028 74.4515 83.8457 74.5635 83.9925L74.7677 84.2596L74.5635 84.0692C74.314 83.835 73.74 83.3791 73.6132 83.314C73.5284 83.2703 73.5152 83.2711 73.4633 83.3239C73.4147 83.3717 73.4049 83.4434 73.3983 83.7847C73.3876 84.3165 73.3151 84.657 73.1397 84.9983C73.045 85.1829 73.0302 85.1434 73.1158 84.9356C73.18 84.7798 73.1866 84.7114 73.1858 84.1969C73.185 83.1631 73.0623 82.915 72.3409 82.4888C72.1581 82.3808 71.8576 82.2258 71.6723 82.1433C71.487 82.0609 71.3404 81.9892 71.3453 81.9842C71.3659 81.9636 72.0692 82.1689 72.3516 82.2769C72.7733 82.4385 72.8424 82.4599 72.8935 82.4401C72.9281 82.4269 72.9445 82.3272 72.961 82.0345ZM63.8056 81.2414C63.7381 82.0395 64.051 83.1071 64.5583 83.8029C64.9502 84.3429 65.5596 84.7625 66.0092 84.8029C66.3032 84.8293 66.3913 84.7378 66.2587 84.5432C66.0735 84.2736 65.8462 83.8589 65.7861 83.6817C65.749 83.5712 65.6675 83.2448 65.6057 82.957C65.3941 81.9735 65.1866 81.5902 64.7065 81.2992C64.5319 81.1936 64.1589 81.0543 63.9423 81.0147L63.827 80.9941L63.8056 81.2414ZM72.3467 88.9859C69.9784 88.0337 69.145 87.2077 69.145 85.8144C69.145 85.6092 69.1516 85.441 69.1607 85.441C69.1689 85.441 69.2611 85.5086 69.3641 85.5918C69.8441 85.976 70.3819 86.1401 71.8707 86.3569C72.7461 86.4847 73.2393 86.5877 73.6939 86.7386C75.1391 87.2168 76.0326 88.1879 76.2458 89.5103C76.3084 89.8944 76.2714 90.615 76.1709 90.995C76.0919 91.2951 75.8497 91.8359 75.7855 91.8565C75.7682 91.8623 75.7501 91.7939 75.746 91.7015C75.7213 91.2052 75.4701 90.7213 75.0477 90.3594C74.5684 89.9472 73.9228 89.6199 72.3467 88.9859ZM70.5696 88.8812C70.6034 88.9802 70.6544 89.2052 70.6841 89.3808C70.8735 90.5078 70.2814 91.4188 69.1294 91.7708C69.0067 91.8087 68.5266 91.9027 68.0613 91.9793C67.1193 92.136 66.6985 92.2473 66.276 92.4501C65.9763 92.5944 65.614 92.8104 65.6354 92.8318C65.6428 92.8384 65.7111 92.8219 65.7877 92.7955C66.3197 92.6084 66.9126 92.5119 67.8135 92.4649C68.1709 92.4468 68.5776 92.4171 68.7168 92.3998C69.5197 92.2984 70.0756 92.0552 70.5079 91.6158C70.7483 91.3718 70.8924 91.1434 71.0077 90.8227C71.081 90.6183 71.0909 90.5432 71.0917 90.1821C71.0917 89.8136 71.0835 89.7469 71.0036 89.5201C70.8998 89.2234 70.7772 89.0008 70.6215 88.8268L70.5095 88.7015L70.5696 88.8812ZM71.7694 91.3058C71.4549 90.6306 71.3832 89.9785 71.5553 89.3709C71.5735 89.3058 71.6031 89.2522 71.6212 89.2522C71.6393 89.2522 71.7134 89.2926 71.7859 89.3412C71.9308 89.4394 72.2215 89.6034 72.9964 90.0247C73.9632 90.5507 74.5141 90.9579 74.8888 91.4237C75.2165 91.831 75.4199 92.2951 75.5179 92.8615C75.5731 93.1822 75.5409 93.9538 75.4586 94.277C75.1984 95.2951 74.5948 96.0948 73.7326 96.5614C73.6066 96.6298 73.4938 96.6859 73.4814 96.6859C73.4691 96.6859 73.5152 96.5696 73.5836 96.4262C73.8734 95.8219 73.9063 95.2333 73.6873 94.5787C73.5531 94.178 73.2797 93.6883 72.7271 92.8615C72.0848 91.9002 71.9275 91.6446 71.7694 91.3058ZM65.8437 93.5202C64.8481 93.6818 63.7554 94.2077 62.8767 94.948L62.6149 95.169L62.8446 95.2044C64.0444 95.3916 64.3672 95.5573 65.1998 96.413C65.6782 96.906 65.8404 97.0148 66.2373 97.1162C66.8204 97.2654 67.396 96.9917 67.5928 96.4724C67.6809 96.2399 67.6694 95.8557 67.5681 95.6628C67.3276 95.2028 66.6268 95.0544 66.2884 95.3916C66.0059 95.6719 66.0883 96.094 66.4391 96.1665C66.5198 96.1838 66.5173 96.1797 66.4185 96.1352C66.2653 96.0659 66.1986 95.9703 66.1978 95.817C66.1953 95.4583 66.6071 95.2572 66.9892 95.4295C67.2691 95.5556 67.3803 95.7205 67.3803 96.009C67.3803 96.4542 67.0015 96.7898 66.5593 96.7345C66.3238 96.7057 66.0348 96.5548 65.8799 96.38C65.4904 95.9406 65.6428 95.2465 66.1863 94.9802C66.6005 94.7782 67.1506 94.8277 67.5771 95.1072C68.0671 95.427 68.2763 95.7205 68.6979 96.6818C68.8354 96.995 69.0124 97.3471 69.0915 97.465C69.4909 98.0627 69.9701 98.3561 70.5474 98.3561C70.8661 98.3561 71.1057 98.2976 71.4071 98.1476C71.6311 98.0363 71.9481 97.8236 71.9251 97.8013C71.9193 97.7947 71.8263 97.8236 71.7192 97.8648C71.0884 98.1105 70.4478 98.094 70.0755 97.8219C69.8417 97.6504 69.6523 97.31 69.5551 96.8829C69.5386 96.8095 69.4835 96.4831 69.4324 96.1583C69.3023 95.3355 69.1788 94.9654 68.8889 94.5408C68.5925 94.1071 68.0226 93.7419 67.3853 93.5795C66.9883 93.4781 66.2736 93.4501 65.8437 93.5202ZM64.4496 87.1574C64.5352 86.84 64.8135 86.5374 65.0993 86.45C65.2805 86.3948 65.6568 86.4303 65.833 86.5193C66.1756 86.6933 66.4234 87.089 66.3699 87.375C66.304 87.7229 65.7383 88.0016 65.0878 88.0065C64.7551 88.0082 64.6324 87.9637 64.5056 87.7947C64.4265 87.69 64.3969 87.3503 64.4496 87.1574ZM65.7457 86.6438C65.9162 86.7477 65.9598 86.9018 65.8602 87.0444C65.791 87.1417 65.5769 87.2357 65.4204 87.2357C65.1849 87.2357 64.9288 87.0684 64.9288 86.9158C64.9288 86.61 65.4204 86.4459 65.7457 86.6438ZM116.761 87.5218C116.23 85.7757 117.106 84.328 118.974 83.8631C119.51 83.7295 121.936 83.7897 122.352 83.9463C122.505 84.004 122.571 84.225 122.572 84.68C122.574 85.0378 122.613 85.4723 122.66 85.6454C122.732 85.9084 122.69 85.9595 122.409 85.9554C122.155 85.9513 122.002 85.8045 121.788 85.3602C121.446 84.6504 121.031 84.4245 120.066 84.422C118.834 84.4179 117.933 85.2382 118.079 86.2291C118.175 86.8738 118.827 87.5078 120.289 88.38C121.681 89.2093 122.493 89.8919 122.817 90.5028C123.682 92.1376 122.943 93.8862 121.015 94.7675C120.025 95.2193 118.367 95.2663 117.201 94.8747L116.454 94.624V93.4443C116.454 92.3767 116.479 92.2654 116.725 92.2654C116.932 92.2654 117.021 92.3998 117.093 92.8211C117.273 93.8697 118.079 94.5062 119.228 94.5062C120.353 94.5062 121.138 93.8994 121.44 92.798C121.568 92.3281 121.546 92.1558 121.292 91.638C120.987 91.0173 120.461 90.6051 118.678 89.5886C117.688 89.0239 116.989 88.2695 116.761 87.5218ZM81.7993 84.5597C81.5564 84.5597 81.4609 84.4814 81.4609 84.2794C81.4609 84.0123 81.5564 83.9991 83.4628 83.9991C85.2332 83.9991 85.4597 84.0255 85.4193 84.2266C85.3938 84.3511 85.1492 84.5242 84.875 84.6116L84.3768 84.7699L84.3348 88.3421C84.306 90.7263 84.3464 92.1014 84.4551 92.4748C84.7779 93.5869 85.7627 94.2267 87.1528 94.2267C88.1203 94.2267 88.6852 94.0024 89.3951 93.3388C90.1593 92.6249 90.2811 91.9472 90.2787 88.422C90.2762 84.9447 90.2144 84.6578 89.4593 84.5861C89.1151 84.5531 89.0006 84.4739 89.0006 84.2703C89.0006 84.0172 89.1134 83.9991 90.7069 83.9991C92.3192 83.9991 92.4139 84.0148 92.4139 84.2794C92.4139 84.4517 92.3184 84.5605 92.1652 84.5613C91.5065 84.5671 91.4941 84.6298 91.406 88.4418C91.3138 92.4014 91.2273 92.8697 90.4162 93.84C90.1815 94.1195 89.6232 94.5259 89.1752 94.7428C88.4448 95.0964 88.2126 95.1368 86.9378 95.1344C85.7627 95.1319 85.3913 95.0758 84.8042 94.8112C83.9461 94.4254 83.3887 93.9258 82.9769 93.1756C82.6904 92.6521 82.6656 92.3685 82.5989 88.8186C82.5232 84.7559 82.4861 84.5597 81.7993 84.5597ZM95.11 84.5597C94.7847 84.5597 94.69 84.4962 94.69 84.2794C94.69 84.0164 94.7806 83.9999 96.1484 84.0106L97.6059 84.0222L98.3034 84.8161C98.6872 85.253 99.9372 86.6191 101.082 87.8515C102.226 89.0849 103.54 90.5193 104.001 91.0387C104.463 91.5597 104.897 91.9851 104.966 91.9851C105.038 91.9851 105.073 90.5152 105.048 88.61L105.003 85.2357L104.604 84.8977C104.384 84.7114 104.048 84.5597 103.857 84.5597C103.602 84.5597 103.509 84.483 103.509 84.2753C103.509 84.0016 103.582 83.9925 105.465 84.0304C107.067 84.0626 107.421 84.1063 107.421 84.2736C107.421 84.3932 107.223 84.5176 106.946 84.5737C106.684 84.6265 106.396 84.7427 106.305 84.8317C106.189 84.9463 106.129 86.4336 106.1 89.9604L106.06 94.9266H105.647C105.292 94.9266 104.87 94.5317 102.611 92.0898C101.168 90.5292 99.4835 88.6751 98.8675 87.9686C98.2524 87.2621 97.7006 86.6792 97.6413 86.6726C97.4767 86.6545 97.5162 92.9645 97.685 93.563C97.8167 94.0305 97.9073 94.1104 98.4673 94.258C98.9177 94.3767 99.0997 94.4971 99.0997 94.676C99.0997 94.9052 98.9276 94.9266 97.1086 94.9266C95.2557 94.9266 95.1166 94.9085 95.1166 94.6644C95.1166 94.4855 95.2508 94.3751 95.5374 94.319C96.4053 94.1475 96.463 93.8763 96.5124 89.7254C96.5395 87.4006 96.4992 85.774 96.4061 85.4336C96.2423 84.835 95.8346 84.5597 95.11 84.5597ZM110.026 84.5597C109.721 84.5597 109.626 84.4929 109.626 84.2794C109.626 84.0115 109.721 83.9991 111.76 83.9991C113.799 83.9991 113.893 84.0115 113.893 84.2794C113.893 84.4847 113.799 84.5597 113.538 84.5597C113.343 84.5597 113.052 84.6883 112.892 84.8458C112.61 85.1228 112.603 85.2613 112.643 89.5498C112.682 93.737 112.699 93.9794 112.96 94.1682C113.112 94.277 113.385 94.3668 113.565 94.3668C113.799 94.3668 113.893 94.4476 113.893 94.6463C113.893 94.9142 113.799 94.9266 111.76 94.9266C109.769 94.9266 109.626 94.9093 109.626 94.6644C109.626 94.4674 109.765 94.38 110.189 94.3132C111.031 94.1813 111.074 93.9093 111.022 89.0659C110.98 85.1879 110.962 84.9455 110.701 84.7584C110.549 84.6487 110.245 84.5597 110.026 84.5597ZM124.909 84.5597C124.715 84.5597 124.566 84.4533 124.52 84.2794C124.449 84.0082 124.516 83.9991 126.567 83.9991C128.592 83.9991 128.687 84.0115 128.687 84.2794C128.687 84.4946 128.592 84.5597 128.277 84.5597C127.382 84.5597 127.403 84.7196 128.757 88.3841C129.447 90.2489 130.117 92.0206 130.246 92.3207L130.48 92.8664L131.566 90.009C132.845 86.6454 133.011 86.023 132.794 85.4096C132.643 84.9818 132.054 84.5597 131.61 84.5597C131.484 84.5597 131.39 84.4393 131.39 84.2794C131.39 84.0115 131.484 83.9991 133.594 83.9991C135.704 83.9991 135.799 84.0115 135.799 84.2794C135.799 84.4789 135.704 84.5597 135.471 84.5597C134.873 84.5597 134.609 84.8738 134.695 85.4838C134.783 86.112 137.23 92.8639 137.333 92.7625C137.499 92.5985 140.209 85.3305 140.209 85.0469C140.209 84.7073 139.968 84.5597 139.415 84.5597C139.166 84.5597 139.071 84.4822 139.071 84.2794C139.071 84.0148 139.166 83.9991 140.778 83.9991C142.226 83.9991 142.484 84.0321 142.484 84.2167C142.484 84.3363 142.307 84.4954 142.091 84.5696C141.603 84.7369 141.481 84.9282 140.869 86.4756C140.6 87.1557 139.76 89.2827 139 91.2036C138.242 93.1236 137.588 94.7782 137.549 94.8804C137.508 94.9835 137.273 95.0668 137.026 95.0668H136.575L135.553 92.4402C134.992 90.9958 134.327 89.2835 134.078 88.6364C133.65 87.5275 133.615 87.4797 133.453 87.7963C133.36 87.981 132.685 89.6957 131.953 91.6067L130.624 95.0808L130.127 95.0387L129.631 94.9967L127.739 90.1046C126.68 87.3709 125.709 85.0675 125.534 84.8862C125.364 84.7064 125.082 84.5597 124.909 84.5597ZM153.352 84.619C153.328 84.5655 153.328 84.3742 153.328 84.3742C153.328 84.3742 153.322 84.3058 153.352 84.2687C153.381 84.2324 153.391 84.2307 153.496 84.2217L153.497 84.2209C153.881 84.1854 154.651 84.1244 155.294 84.0964C155.354 84.0939 155.419 84.0914 155.49 84.0881H155.492C156.199 84.056 157.467 84.0139 158.337 84.0568C160.008 84.1392 161.195 84.9373 161.601 86.2555C162.005 87.5737 161.791 88.812 161.239 89.5993C160.687 90.3874 159.759 91.0659 158.218 91.0214C156.944 90.9851 156.604 90.7493 156.331 90.5614C156.274 90.5218 156.219 90.4839 156.16 90.4509V92.1319C156.173 93.2786 156.183 93.8293 156.273 94.0338C156.394 94.3083 156.667 94.4773 157.201 94.6067C157.201 94.6067 157.442 94.6628 157.504 94.7222C157.566 94.7815 157.566 94.9142 157.566 94.9142C157.566 94.9142 157.579 95.0379 157.529 95.1006C157.479 95.164 157.383 95.1517 157.383 95.1517L155.022 95.1327L153.598 95.1286C153.598 95.1286 153.448 95.1574 153.392 95.0981C153.336 95.0379 153.342 94.9142 153.342 94.9142C153.342 94.9142 153.354 94.7807 153.419 94.7213C153.484 94.6611 153.727 94.5944 153.727 94.5944C154.277 94.4427 154.515 94.2811 154.639 93.9777C154.739 93.7329 154.74 93.2786 154.739 89.5746C154.738 86.0626 154.733 85.4072 154.651 85.2184C154.531 84.9397 154.229 84.8655 153.799 84.76C153.713 84.7394 153.624 84.7171 153.528 84.6924C153.528 84.6924 153.376 84.6726 153.352 84.619ZM160.226 87.4855C160.226 88.0609 160.215 88.9628 159.595 89.5399C158.975 90.1162 157.753 90.2736 156.924 90.1129C156.663 90.0626 156.513 89.9851 156.399 89.9249L156.387 89.9183L156.175 89.8079L156.162 87.7839C156.154 86.516 156.168 85.6899 156.199 85.5721C156.226 84.9035 157.224 84.8202 157.711 84.8449C159.797 84.8449 160.165 86.582 160.226 87.4855ZM146.802 84.0774C146.802 84.0774 146.7 84.1162 146.545 84.1739L145.988 84.4583L145.587 85.4484C145.367 85.9925 144.963 86.9917 144.691 87.6685C144.194 88.9018 143.866 89.7114 143.521 90.5572C143.42 90.8054 143.114 91.563 142.84 92.2399C142.568 92.9167 142.294 93.5606 142.234 93.671C142.224 93.69 142.214 93.7098 142.202 93.7304C142.05 94.014 141.785 94.5062 141.316 94.5812C141.316 94.5812 141.058 94.6059 140.963 94.6991C140.868 94.7922 140.877 94.8681 140.877 94.8681V94.986C140.877 94.986 140.885 95.0428 140.94 95.0709C140.994 95.0989 141.066 95.1006 141.066 95.1006L142.78 95.0816H144.551C144.551 95.0816 144.676 95.0964 144.724 95.0569C144.772 95.0173 144.786 94.9579 144.786 94.9579V94.8351C144.786 94.8351 144.761 94.7007 144.691 94.6488C144.621 94.596 144.358 94.5606 144.358 94.5606C143.649 94.4682 143.527 93.9381 143.614 93.4616C143.658 93.2275 143.943 92.3619 144.263 91.4897L144.374 91.1887L146.23 91.1747C147.25 91.1665 148.131 91.1723 148.187 91.1863C148.268 91.2061 148.381 91.4328 148.712 92.239C149.213 93.46 149.253 93.6084 149.142 93.8367C149.136 93.8508 149.128 93.8664 149.121 93.8829C149.016 94.1038 148.814 94.5334 148.304 94.5771C148.304 94.5771 148.034 94.5861 147.966 94.6661C147.899 94.7461 147.914 94.8384 147.914 94.8384V94.9604C147.914 94.9604 147.932 95.0321 147.966 95.0602C148.001 95.089 148.06 95.0816 148.06 95.0816L149.744 95.0692H152.111C152.111 95.0692 152.204 95.0791 152.229 95.0437C152.255 95.0082 152.26 94.967 152.26 94.967V94.8046C152.26 94.8046 152.249 94.718 152.204 94.671C152.159 94.6232 151.851 94.5729 151.851 94.5729C151.459 94.5103 151.264 94.1904 151.119 93.9522C151.082 93.8911 151.048 93.8359 151.015 93.7914C150.947 93.7007 150.707 93.2028 150.518 92.7246C150.33 92.2456 149.904 91.1648 149.573 90.3223C149.242 89.4797 148.779 88.3041 148.545 87.7106C148.311 87.1162 147.868 85.9859 147.558 85.1986C147.508 85.0692 147.462 84.9529 147.421 84.8491C147.214 84.3198 147.13 84.1063 147.107 84.0774C147.033 83.9842 146.802 84.0774 146.802 84.0774ZM146.692 87.2951C146.617 87.1162 146.485 86.7938 146.399 86.5795C146.243 86.1904 146.183 86.1005 146.135 86.1813C146.121 86.2044 146.023 86.4707 145.917 86.7724C145.23 88.7254 144.919 89.6051 144.857 89.7708C144.817 89.8746 144.786 89.9818 144.786 90.009C144.786 90.0403 145.344 90.0585 146.301 90.0585C147.134 90.0585 147.816 90.0478 147.816 90.0354C147.816 90.023 147.742 89.8367 147.651 89.6215C147.56 89.4055 147.337 88.868 147.157 88.4253C146.976 87.9834 146.767 87.4748 146.692 87.2951Z" fill="white"/>
</g>
<path d="M806.886 114.122C814.075 114.122 819.904 108.191 819.904 100.875C819.904 93.5595 814.075 87.6289 806.886 87.6289C799.696 87.6289 793.868 93.5595 793.868 100.875C793.868 108.191 799.696 114.122 806.886 114.122Z" fill="#2F4050"/>
<path d="M803.852 94.0237C804.941 94.6633 806.032 95.3009 807.119 95.9437C807.451 96.1402 807.615 96.4406 807.613 96.831C807.61 97.2267 807.613 97.623 807.613 98.0192C807.613 98.073 807.619 98.122 807.557 98.1577C807.083 98.4304 806.61 98.7063 806.113 98.9955C806.113 98.8634 806.113 98.7526 806.113 98.6419C806.113 98.3298 806.113 98.0176 806.113 97.7055C806.113 97.3327 805.951 97.0494 805.635 96.8566C805.096 96.5274 804.557 96.1972 804.014 95.8745C803.669 95.6694 803.315 95.6561 802.961 95.8633C802.429 96.1749 801.895 96.4843 801.363 96.7953C801.023 96.9935 800.845 97.2896 800.843 97.6842C800.839 98.318 800.839 98.9518 800.843 99.5856C800.845 99.9851 801.021 100.282 801.368 100.487C801.882 100.79 802.391 101.104 802.9 101.415C803.285 101.651 803.665 101.664 804.056 101.42C805.93 100.247 807.889 99.2165 809.78 98.0698C810.106 97.8722 810.456 97.8691 810.794 98.0661C811.826 98.6669 812.858 99.2687 813.89 99.8684C814.253 100.079 814.424 100.392 814.423 100.811C814.42 102.009 814.42 103.208 814.423 104.406C814.423 104.824 814.251 105.135 813.887 105.346C812.87 105.934 811.859 106.532 810.839 107.114C810.478 107.321 810.095 107.324 809.729 107.113C808.716 106.528 807.708 105.936 806.696 105.348C806.336 105.14 806.149 104.837 806.157 104.413C806.164 104.042 806.159 103.67 806.158 103.299C806.158 103.234 806.154 103.177 806.226 103.135C806.693 102.869 807.156 102.597 807.621 102.327C807.668 102.36 807.647 102.403 807.647 102.438C807.65 102.799 807.649 103.16 807.649 103.522C807.65 103.915 807.81 104.219 808.153 104.418C808.69 104.732 809.225 105.049 809.765 105.357C810.119 105.558 810.477 105.561 810.832 105.347C811.335 105.043 811.838 104.741 812.345 104.443C812.709 104.228 812.891 103.918 812.886 103.491C812.88 102.877 812.884 102.262 812.885 101.648C812.885 101.248 812.716 100.946 812.369 100.745C811.848 100.443 811.328 100.139 810.809 99.8343C810.436 99.616 810.069 99.6085 809.69 99.8311C807.841 100.914 805.988 101.989 804.14 103.071C803.858 103.236 803.573 103.35 803.242 103.269C803.154 103.247 803.072 103.215 802.995 103.17C801.954 102.564 800.914 101.958 799.872 101.354C799.595 101.194 799.432 100.953 799.349 100.65C799.349 99.3033 799.349 97.9559 799.349 96.6089C799.438 96.3453 799.568 96.1152 799.83 95.9868C799.892 95.9565 799.95 95.9181 800.01 95.8835C801.075 95.2657 802.126 94.6239 803.2 94.0237C803.417 94.0237 803.635 94.0237 803.852 94.0237Z" fill="#AD7CFF"/>
<path d="M214.203 30.6756C220.018 30.6756 224.731 25.8667 224.731 19.9346C224.731 14.0025 220.018 9.1936 214.203 9.1936C208.388 9.1936 203.675 14.0025 203.675 19.9346C203.675 25.8667 208.388 30.6756 214.203 30.6756Z" fill="#2F4050"/>
<path d="M210.754 22.5086C210.992 21.8736 211.449 21.347 212.041 21.0264L213.053 21.6179C213.458 21.8535 213.375 22.5024 213.013 22.7152L210.946 23.9253C210.911 23.9445 210.872 23.9548 210.832 23.955C210.792 23.9553 210.753 23.9455 210.718 23.9267C210.682 23.9078 210.652 23.8804 210.63 23.847C210.608 23.8135 210.594 23.775 210.589 23.7349C210.556 23.3189 210.612 22.9005 210.754 22.5086Z" fill="#FA4B29"/>
<path d="M213.963 19.7665C213.962 19.5891 213.918 19.4146 213.835 19.2584C213.751 19.1022 213.631 18.9692 213.484 18.871L207.747 15.5352C207.776 16.475 208.041 17.3919 208.516 18.2014C208.991 19.0109 209.66 19.6867 210.463 20.1664L213.024 21.6606C213.431 21.8976 213.349 22.5592 212.983 22.7652L213.625 22.3902C213.725 22.3316 213.808 22.2477 213.865 22.1467C213.923 22.0458 213.953 21.9314 213.952 21.815V21.0538C213.952 21.0404 213.963 19.7665 213.963 19.7665Z" fill="#FA9F29"/>
<path opacity="0.2" d="M213.055 21.6358L212.043 21.0264C212.353 21.2994 212.651 21.5884 212.933 21.8924C213.17 22.1744 213.013 22.7652 213.013 22.7652C213.376 22.5547 213.457 21.8782 213.055 21.6358Z" fill="black"/>
<path d="M217.623 17.5305C217.377 18.1657 216.905 18.6924 216.293 19.0131L215.247 18.4214C214.828 18.1858 214.914 17.5368 215.289 17.3239L217.424 16.1136C217.46 16.0946 217.501 16.0846 217.542 16.0845C217.583 16.0844 217.623 16.0942 217.66 16.113C217.696 16.1318 217.728 16.159 217.751 16.1923C217.774 16.2256 217.788 16.2639 217.793 16.304C217.827 16.72 217.769 17.1385 217.623 17.5305Z" fill="#FA4B29"/>
<path d="M214.328 20.2726C214.329 20.45 214.373 20.6245 214.456 20.7807C214.54 20.9369 214.66 21.0699 214.807 21.1681L220.545 24.5039C220.514 23.5642 220.25 22.6471 219.775 21.8377C219.301 21.0282 218.631 20.3524 217.828 19.8727L215.267 18.3785C214.86 18.1414 214.942 17.4799 215.308 17.2739L214.666 17.6491C214.566 17.7076 214.483 17.7916 214.426 17.8924C214.368 17.9934 214.338 18.1077 214.339 18.2241V18.9853C214.339 18.9989 214.328 20.2726 214.328 20.2726Z" fill="#FA9F29"/>
<path opacity="0.2" d="M215.256 18.4034L216.339 19.0128C216.007 18.7398 215.689 18.4507 215.386 18.1468C215.133 17.8648 215.3 17.2739 215.3 17.2739C214.911 17.4838 214.824 18.1603 215.256 18.4034Z" fill="black"/>
<path d="M226.102 124.044C232.661 124.044 237.978 118.653 237.978 112.003C237.978 105.353 232.661 99.9617 226.102 99.9617C219.543 99.9617 214.226 105.353 214.226 112.003C214.226 118.653 219.543 124.044 226.102 124.044Z" fill="#2F4050"/>
<mask id="mask2_2713_3498" style="mask-type:luminance" maskUnits="userSpaceOnUse" x="218" y="107" width="15" height="11">
<path d="M232.722 107.653H218.805V117.157H232.722V107.653Z" fill="white"/>
</mask>
<g mask="url(#mask2_2713_3498)">
<path fill-rule="evenodd" clip-rule="evenodd" d="M229.199 110.321L229.199 110.321L229.927 110.325C230.01 110.319 230.093 110.32 230.177 110.326L231.955 110.335C232.225 110.35 232.44 110.563 232.44 110.825C232.44 110.948 232.392 111.06 232.313 111.146L231.448 112.573C231.441 112.585 231.434 112.597 231.427 112.609L229.286 116.147C228.996 116.627 228.474 116.899 227.933 116.91L227.934 116.911H227.908C227.895 116.911 227.88 116.911 227.867 116.91L221.531 116.88H220.825V116.867C221.361 116.797 221.812 116.471 222.041 116.024L222.046 116.024L225.15 110.872C225.324 110.545 225.681 110.321 226.092 110.321L226.063 110.321L226.064 110.321H229.199Z" fill="#2BBDF7"/>
<path fill-rule="evenodd" clip-rule="evenodd" d="M224.27 107.815H229.93C230.204 107.83 230.42 108.043 230.42 108.304C230.42 108.409 230.385 108.506 230.326 108.586L228.799 111.086L227.175 113.743H227.176H227.189L226.67 114.591C226.232 115.306 226.478 116.216 227.216 116.649L227.262 116.675C227.47 116.788 227.693 116.853 227.918 116.872V116.909L225.242 116.908L225.241 116.911H220.601C220.338 116.906 220.07 116.843 219.823 116.714C219.027 116.298 218.739 115.352 219.18 114.601L222.702 108.612C223.024 108.062 223.648 107.77 224.27 107.815Z" fill="#2B6DEF"/>
<path fill-rule="evenodd" clip-rule="evenodd" d="M226.134 110.322L229.242 110.325L228.792 111.065L227.173 113.732H227.174H227.187L226.669 114.583C226.233 115.3 226.478 116.214 227.214 116.648L227.26 116.674C227.467 116.787 227.69 116.853 227.913 116.872V116.908H225.245L225.244 116.91L220.825 116.911C221.315 116.862 221.775 116.606 222.052 116.183L222.083 116.134L225.351 110.712C225.537 110.485 225.823 110.335 226.145 110.321L226.134 110.322Z" fill="white"/>
<path fill-rule="evenodd" clip-rule="evenodd" d="M226.134 110.322L229.242 110.325L228.792 111.065L227.173 113.732H227.174H227.187L226.669 114.583C226.233 115.3 226.478 116.214 227.214 116.648L227.26 116.674C227.467 116.787 227.69 116.853 227.913 116.872V116.908H225.245L225.244 116.91L220.825 116.911C221.315 116.862 221.775 116.606 222.052 116.183L222.083 116.134L225.351 110.712C225.537 110.485 225.823 110.335 226.145 110.321L226.134 110.322Z" fill="#0CC19B" fill-opacity="0.5"/>
<path fill-rule="evenodd" clip-rule="evenodd" d="M226.134 110.322L229.242 110.325L228.792 111.065L227.173 113.732H227.174H227.187L226.669 114.583C226.233 115.3 226.478 116.214 227.214 116.648L227.26 116.674C227.467 116.787 227.69 116.853 227.913 116.872V116.908H225.245L225.244 116.91L220.825 116.911C221.315 116.862 221.775 116.606 222.052 116.183L222.083 116.134L225.351 110.712C225.537 110.485 225.823 110.335 226.145 110.321L226.134 110.322Z" fill="#003CB2"/>
</g>
</g>
<path d="M678.762 125.084C684.059 125.084 688.354 120.687 688.354 115.264C688.354 109.84 684.059 105.443 678.762 105.443C673.464 105.443 669.169 109.84 669.169 115.264C669.169 120.687 673.464 125.084 678.762 125.084Z" fill="#2F4050"/>
<path d="M640.85 35.8769C647.913 35.8769 653.639 30.0792 653.639 22.9274C653.639 15.7755 647.913 9.97778 640.85 9.97778C633.786 9.97778 628.06 15.7755 628.06 22.9274C628.06 30.0792 633.786 35.8769 640.85 35.8769Z" fill="#2F4050"/>
<path d="M637.994 21.8976L640.851 19.0385L643.709 21.8999L645.37 20.2354L640.851 15.7095L636.331 20.2342L637.994 21.8976Z" fill="#F3BA2F"/>
<path d="M633.494 23.0733L635.156 21.4094L636.818 23.0733L635.156 24.7372L633.494 23.0733Z" fill="#F3BA2F"/>
<path d="M637.994 24.2477L640.851 27.108L643.709 24.2466L645.372 25.9088L645.37 25.9099L640.851 30.4358L636.331 25.9122L636.329 25.9099L637.994 24.2477Z" fill="#F3BA2F"/>
<path d="M644.881 23.074L646.543 21.4102L648.205 23.074L646.543 24.7379L644.881 23.074Z" fill="#F3BA2F"/>
<path d="M642.537 23.072L640.851 21.3831L639.604 22.6311L639.46 22.7742L639.165 23.0697L639.163 23.072L639.165 23.0755L640.851 24.7621L642.537 23.0731L642.538 23.072H642.537Z" fill="#F3BA2F"/>
<path d="M774.324 46.1336C781.693 46.1336 787.667 40.0849 787.667 32.6234C787.667 25.162 781.693 19.1133 774.324 19.1133C766.954 19.1133 760.98 25.162 760.98 32.6234C760.98 40.0849 766.954 46.1336 774.324 46.1336Z" fill="#2F4050"/>
<path d="M774.464 24.5859C774.543 24.6238 774.629 24.6237 774.714 24.6389C775.084 24.7144 775.39 24.9184 775.711 25.1149C777.198 26.0442 778.694 26.9661 780.182 27.888C780.837 28.296 781.214 28.908 781.321 29.7014C781.364 29.9961 781.342 30.2984 781.335 30.6006C781.321 30.9633 781.328 31.326 781.328 31.6887C781.328 32.6559 781.335 33.6306 781.321 34.5978C781.314 35.0738 781.335 35.5574 781.307 36.0334C781.257 36.9175 780.858 37.5975 780.132 38.0434C778.616 38.9728 777.092 39.887 775.568 40.8089C775.269 40.9902 774.97 41.164 774.629 41.2396C774.528 41.2623 774.422 41.2547 774.322 41.2925C774.223 41.2925 774.116 41.2925 774.016 41.2925C774.002 41.2698 773.973 41.2774 773.952 41.2698C773.646 41.2471 773.354 41.1564 773.083 40.9978C772.578 40.6955 772.079 40.3782 771.574 40.0684C770.456 39.3732 769.345 38.6856 768.228 37.9904C767.715 37.6731 767.359 37.2197 767.167 36.6152C767.11 36.449 767.096 36.2677 767.053 36.1014C767.053 35.5574 767.053 35.0133 767.053 34.4693C767.074 34.4542 767.074 34.4315 767.074 34.4089C767.074 34.0688 767.074 33.7364 767.067 33.3963C767.067 32.2932 767.074 31.19 767.074 30.0868C767.074 29.6107 767.153 29.1498 767.38 28.7342C767.53 28.4622 767.722 28.2204 767.957 28.024C768.178 27.8351 768.427 27.7142 768.669 27.5555C768.776 27.4875 768.883 27.4573 769.004 27.4724C769.908 27.5933 770.577 28.4396 770.52 29.4067L770.513 29.4143C770.513 29.4218 770.513 29.4294 770.52 29.4294C770.52 30.9331 770.52 32.4367 770.52 33.9404L770.513 33.9479C770.513 33.9555 770.52 33.9631 770.52 33.9631C770.528 34.1066 770.534 34.2426 770.556 34.3862C770.656 34.9605 770.933 35.4289 771.31 35.8294C771.624 36.1619 771.987 36.4339 772.393 36.6379C773.097 36.993 773.831 37.0988 774.593 36.9855C775.518 36.8495 776.295 36.3961 776.914 35.6556C777.661 34.7489 777.967 33.691 777.854 32.4972C777.796 31.8851 777.59 31.3184 777.284 30.7895C776.942 30.2001 776.465 29.7921 775.831 29.6107C775.062 29.3841 774.301 29.1574 773.532 28.9383C773.247 28.8551 773.012 29.0516 773.012 29.369C773.012 29.7619 773.012 30.1548 773.012 30.5477C773.012 30.7895 773.176 31.0313 773.396 31.0917C773.796 31.2126 774.201 31.326 774.6 31.4469C774.806 31.5073 775.02 31.5376 775.198 31.666C775.618 31.9531 775.803 32.3914 775.846 32.8976C775.895 33.5248 775.696 34.0537 775.241 34.4618C774.835 34.8244 774.351 34.9605 773.831 34.8622C773.446 34.7942 773.119 34.6053 772.856 34.2955C772.67 34.0839 772.549 33.827 772.549 33.5399C772.542 31.4469 772.549 29.3538 772.549 27.2608C772.549 27.1172 772.557 26.9812 772.564 26.8377C772.613 26.1652 772.82 25.5607 773.162 24.994C773.262 24.8277 773.39 24.7371 773.561 24.6842C773.703 24.6464 773.845 24.6237 773.988 24.5784C774.137 24.5859 774.301 24.5859 774.464 24.5859Z" fill="#5FDBFE"/>
<path d="M309.062 84.676L312.036 76.9703V84.676H313.838V73.5957H311.748L308.413 82.113L305.042 73.5957H302.897V84.676H304.681V76.9703L307.728 84.676H309.062ZM322.35 84.676V79.4246C322.35 77.6016 321.16 76.4827 319.141 76.4827C317.501 76.4827 316.239 77.5112 316.005 78.8832H317.735C317.934 78.3234 318.384 78.0166 319.105 78.0166C320.132 78.0166 320.637 78.6485 320.637 79.4607V80.1103C320.313 79.8756 319.502 79.6226 318.78 79.6226C317.014 79.6226 315.662 80.6878 315.662 82.2034C315.662 83.8455 317.014 84.8203 318.655 84.8203C319.556 84.8203 320.367 84.4952 320.637 84.2244V84.676H322.35ZM320.637 82.5463C320.439 83.0517 319.718 83.3585 318.997 83.3585C318.186 83.3585 317.338 83.0156 317.338 82.2034C317.338 81.4096 318.186 81.0667 318.997 81.0667C319.718 81.0667 320.439 81.3735 320.637 81.8789V82.5463ZM329.667 84.676H331.849L328.315 80.128L331.722 76.6635H329.415L326.278 79.9477V72.946H324.476V84.676H326.278V82.0231L327.018 81.2653L329.667 84.676ZM334.957 76.6635H333.154V84.676H334.957V76.6635ZM335.173 74.2453C335.173 73.6317 334.651 73.1441 334.055 73.1441C333.461 73.1441 332.938 73.6317 332.938 74.2453C332.938 74.8589 333.461 75.346 334.055 75.346C334.651 75.346 335.173 74.8589 335.173 74.2453ZM337.186 84.676H338.988V79.4063C339.187 78.6124 339.889 78.1248 340.664 78.1248C341.692 78.1248 342.179 78.7744 342.179 79.7675V84.676H343.981V79.4607C343.981 77.6921 342.972 76.4827 341.151 76.4827C340.214 76.4827 339.421 76.9159 338.988 77.4213V76.6635H337.186V84.676ZM351.302 84.1346C351.302 85.6324 350.671 86.444 349.337 86.444C348.345 86.444 347.715 85.993 347.534 85.1087H345.786C345.984 86.8596 347.3 87.9242 349.337 87.9242C351.464 87.9242 353.104 86.7148 353.104 84.0081V76.6635H351.302V77.3132C350.941 76.8799 350.166 76.4827 349.265 76.4827C346.904 76.4827 345.551 78.4316 345.551 80.543C345.551 82.6544 346.904 84.6033 349.265 84.6033C350.166 84.6033 350.941 84.2067 351.302 83.7734V84.1346ZM351.302 82.0592C350.995 82.6006 350.328 83.0156 349.571 83.0156C348.183 83.0156 347.39 81.9688 347.39 80.543C347.39 79.1178 348.183 78.071 349.571 78.071C350.328 78.071 350.995 78.4859 351.302 79.0274V82.0592ZM359.421 73.5957V84.676H366.649V82.9973H361.259V79.8213H366.145V78.1792H361.259V75.2555H366.649V73.5957H359.421ZM372.488 84.676L375.534 76.6635H373.66L371.604 82.5285L369.531 76.6635H367.603L370.631 84.676H372.488ZM381.732 82.1851C381.533 82.9612 380.884 83.3401 380.019 83.3401C378.866 83.3401 378.055 82.4919 378 81.0845H383.462V80.4348C383.462 78.0887 382.237 76.4827 379.983 76.4827C377.802 76.4827 376.234 78.2873 376.234 80.6878C376.234 83.1598 377.784 84.8563 380.019 84.8563C381.948 84.8563 383.12 83.7734 383.39 82.1851H381.732ZM380.001 77.9989C381.101 77.9989 381.66 78.7927 381.677 79.7675H378.055C378.271 78.6124 379.01 77.9989 380.001 77.9989ZM389.589 76.6269C389.463 76.5548 389.103 76.4827 388.706 76.4827C387.931 76.4827 387.228 76.8976 386.922 77.4935V76.6635H385.119V84.676H386.922V79.4967C387.102 78.6302 387.787 78.2152 388.526 78.2152C388.904 78.2152 389.337 78.3056 389.589 78.4859V76.6269ZM394.165 87.7433L398.383 76.6635H396.527L394.472 82.5646L392.381 76.6635H390.452L393.553 84.8924L392.417 87.7433H394.165ZM405.779 82.9973V75.2555H407.564C409.889 75.2555 411.133 76.7534 411.133 79.1356C411.133 81.4994 409.889 82.9973 407.564 82.9973H405.779ZM403.904 84.676H407.636C410.898 84.676 413.007 82.5102 413.007 79.1356C413.007 75.7609 410.898 73.5957 407.636 73.5957H403.904V84.676ZM416.566 76.6635H414.763V84.676H416.566V76.6635ZM416.782 74.2453C416.782 73.6317 416.259 73.1441 415.664 73.1441C415.07 73.1441 414.546 73.6317 414.546 74.2453C414.546 74.8589 415.07 75.346 415.664 75.346C416.259 75.346 416.782 74.8589 416.782 74.2453ZM423.985 84.1346C423.985 85.6324 423.354 86.444 422.02 86.444C421.029 86.444 420.399 85.993 420.218 85.1087H418.47C418.668 86.8596 419.984 87.9242 422.02 87.9242C424.148 87.9242 425.788 86.7148 425.788 84.0081V76.6635H423.985V77.3132C423.625 76.8799 422.85 76.4827 421.948 76.4827C419.587 76.4827 418.235 78.4316 418.235 80.543C418.235 82.6544 419.587 84.6033 421.948 84.6033C422.85 84.6033 423.625 84.2067 423.985 83.7734V84.1346ZM423.985 82.0592C423.679 82.6006 423.012 83.0156 422.255 83.0156C420.867 83.0156 420.074 81.9688 420.074 80.543C420.074 79.1178 420.867 78.071 422.255 78.071C423.012 78.071 423.679 78.4859 423.985 79.0274V82.0592ZM429.821 76.6635H428.018V84.676H429.821V76.6635ZM430.037 74.2453C430.037 73.6317 429.514 73.1441 428.919 73.1441C428.325 73.1441 427.802 73.6317 427.802 74.2453C427.802 74.8589 428.325 75.346 428.919 75.346C429.514 75.346 430.037 74.8589 430.037 74.2453ZM432.464 82.5102C432.464 84.0985 433.473 84.8563 434.897 84.8563C435.456 84.8563 435.943 84.7481 436.249 84.5673V82.9252C435.997 83.1055 435.582 83.2503 435.222 83.2503C434.627 83.2503 434.267 82.9612 434.267 82.3116V78.1608H436.069V76.6635H434.267V74.516H432.464V76.6635H431.202V78.1608H432.464V82.5102ZM444.076 84.676V79.4246C444.076 77.6016 442.886 76.4827 440.868 76.4827C439.227 76.4827 437.965 77.5112 437.731 78.8832H439.461C439.66 78.3234 440.11 78.0166 440.832 78.0166C441.859 78.0166 442.364 78.6485 442.364 79.4607V80.1103C442.039 79.8756 441.228 79.6226 440.507 79.6226C438.74 79.6226 437.388 80.6878 437.388 82.2034C437.388 83.8455 438.74 84.8203 440.38 84.8203C441.282 84.8203 442.093 84.4952 442.364 84.2244V84.676H444.076ZM442.364 82.5463C442.165 83.0517 441.444 83.3585 440.723 83.3585C439.912 83.3585 439.065 83.0156 439.065 82.2034C439.065 81.4096 439.912 81.0667 440.723 81.0667C441.444 81.0667 442.165 81.3735 442.364 81.8789V82.5463ZM448.005 72.946H446.202V84.676H448.005V72.946ZM457.709 73.5957L453.454 84.676H455.347L456.483 81.6082H460.719L461.855 84.676H463.765L459.511 73.5957H457.709ZM458.592 75.8874L460.106 79.9838H457.078L458.592 75.8874ZM464.514 82.366C464.749 83.9176 466.046 84.8563 467.921 84.8563C469.724 84.8563 471.039 83.8816 471.039 82.2939C471.039 81.1205 470.354 80.345 468.984 80.0199L467.29 79.6226C466.713 79.4784 466.461 79.2437 466.461 78.8832C466.461 78.2513 467.11 77.9628 467.74 77.9628C468.57 77.9628 469.039 78.3234 469.201 78.8471H470.967C470.697 77.3853 469.633 76.4827 467.759 76.4827C466.01 76.4827 464.73 77.5473 464.73 78.9913C464.73 80.3083 465.578 80.9219 466.713 81.1926L468.372 81.5899C469.039 81.7524 469.309 81.9871 469.309 82.4198C469.309 83.0517 468.768 83.3762 467.939 83.3762C467.146 83.3762 466.551 83.0333 466.353 82.366H464.514ZM472.242 82.366C472.477 83.9176 473.774 84.8563 475.649 84.8563C477.452 84.8563 478.767 83.8816 478.767 82.2939C478.767 81.1205 478.082 80.345 476.712 80.0199L475.018 79.6226C474.441 79.4784 474.189 79.2437 474.189 78.8832C474.189 78.2513 474.838 77.9628 475.468 77.9628C476.298 77.9628 476.767 78.3234 476.928 78.8471H478.695C478.425 77.3853 477.361 76.4827 475.487 76.4827C473.738 76.4827 472.458 77.5473 472.458 78.9913C472.458 80.3083 473.305 80.9219 474.441 81.1926L476.099 81.5899C476.767 81.7524 477.037 81.9871 477.037 82.4198C477.037 83.0517 476.496 83.3762 475.667 83.3762C474.874 83.3762 474.279 83.0333 474.081 82.366H472.242ZM485.468 82.1851C485.269 82.9612 484.62 83.3401 483.755 83.3401C482.602 83.3401 481.79 82.4919 481.736 81.0845H487.198V80.4348C487.198 78.0887 485.972 76.4827 483.719 76.4827C481.538 76.4827 479.97 78.2873 479.97 80.6878C479.97 83.1598 481.52 84.8563 483.755 84.8563C485.684 84.8563 486.856 83.7734 487.126 82.1851H485.468ZM483.737 77.9989C484.836 77.9989 485.396 78.7927 485.413 79.7675H481.79C482.006 78.6124 482.746 77.9989 483.737 77.9989ZM489.269 82.5102C489.269 84.0985 490.279 84.8563 491.703 84.8563C492.262 84.8563 492.748 84.7481 493.055 84.5673V82.9252C492.803 83.1055 492.388 83.2503 492.027 83.2503C491.432 83.2503 491.072 82.9612 491.072 82.3116V78.1608H492.875V76.6635H491.072V74.516H489.269V76.6635H488.008V78.1608H489.269V82.5102ZM503.251 80.543C505.54 80.543 507.037 79.3342 507.037 77.0785C507.037 74.7868 505.54 73.5957 503.251 73.5957H498.979V84.676H500.854V80.543H503.251ZM505.18 77.0785C505.18 78.1431 504.513 78.9192 503.215 78.9192H500.854V75.2195H503.215C504.513 75.2195 505.18 75.9773 505.18 77.0785ZM513.164 76.6269C513.038 76.5548 512.677 76.4827 512.281 76.4827C511.506 76.4827 510.803 76.8976 510.496 77.4935V76.6635H508.693V84.676H510.496V79.4967C510.677 78.6302 511.362 78.2152 512.1 78.2152C512.479 78.2152 512.912 78.3056 513.164 78.4859V76.6269ZM521.604 80.6695C521.604 78.2152 520.053 76.4827 517.8 76.4827C515.547 76.4827 513.997 78.2152 513.997 80.6695C513.997 83.1238 515.547 84.8563 517.8 84.8563C520.053 84.8563 521.604 83.1238 521.604 80.6695ZM519.801 80.6695C519.801 82.1851 519.098 83.3041 517.8 83.3041C516.502 83.3041 515.799 82.1851 515.799 80.6695C515.799 79.1539 516.502 78.0349 517.8 78.0349C519.098 78.0349 519.801 79.1539 519.801 80.6695ZM528.531 84.676H530.333V72.946H528.531V77.3492C528.171 76.8976 527.377 76.4827 526.494 76.4827C524.151 76.4827 522.78 78.3778 522.78 80.6695C522.78 82.9795 524.151 84.8563 526.494 84.8563C527.377 84.8563 528.171 84.4414 528.531 83.9898V84.676ZM528.531 82.1851C528.224 82.817 527.539 83.2503 526.801 83.2503C525.413 83.2503 524.583 82.1491 524.583 80.6695C524.583 79.1899 525.413 78.0887 526.801 78.0887C527.539 78.0887 528.224 78.522 528.531 79.1539V82.1851ZM539.215 76.6635H537.412V81.9327C537.215 82.7266 536.529 83.2142 535.754 83.2142C534.727 83.2142 534.258 82.5646 534.258 81.5721V76.6635H532.456V81.8789C532.456 83.6469 533.447 84.8563 535.267 84.8563C536.205 84.8563 536.98 84.423 537.412 83.9177V84.676H539.215V76.6635ZM540.895 80.6695C540.895 83.1598 542.463 84.8563 544.626 84.8563C546.536 84.8563 547.744 83.7734 547.979 82.1674H546.176C546.032 82.8891 545.437 83.2863 544.644 83.2863C543.436 83.2863 542.697 82.1851 542.697 80.6695C542.697 79.1539 543.436 78.0527 544.644 78.0527C545.437 78.0527 546.032 78.4499 546.176 79.1716H547.979C547.744 77.5656 546.536 76.4827 544.626 76.4827C542.463 76.4827 540.895 78.1792 540.895 80.6695ZM550.088 82.5102C550.088 84.0985 551.098 84.8563 552.522 84.8563C553.081 84.8563 553.567 84.7481 553.874 84.5673V82.9252C553.622 83.1055 553.207 83.2503 552.846 83.2503C552.252 83.2503 551.891 82.9612 551.891 82.3116V78.1608H553.694V76.6635H551.891V74.516H550.088V76.6635H548.827V78.1608H550.088V82.5102ZM557.514 76.6635H555.712V84.676H557.514V76.6635ZM557.731 74.2453C557.731 73.6317 557.208 73.1441 556.613 73.1441C556.018 73.1441 555.496 73.6317 555.496 74.2453C555.496 74.8589 556.018 75.346 556.613 75.346C557.208 75.346 557.731 74.8589 557.731 74.2453ZM563.835 84.676L566.881 76.6635H565.007L562.951 82.5285L560.878 76.6635H558.95L561.978 84.676H563.835ZM573.079 82.1851C572.88 82.9612 572.231 83.3401 571.366 83.3401C570.213 83.3401 569.402 82.4919 569.348 81.0845H574.809V80.4348C574.809 78.0887 573.584 76.4827 571.33 76.4827C569.149 76.4827 567.581 78.2873 567.581 80.6878C567.581 83.1598 569.131 84.8563 571.366 84.8563C573.295 84.8563 574.467 83.7734 574.737 82.1851H573.079ZM571.348 77.9989C572.448 77.9989 573.007 78.7927 573.025 79.7675H569.401C569.618 78.6124 570.357 77.9989 571.348 77.9989Z" fill="white"/>
<path d="M310.97 57.7854C308.18 57.7854 305.975 57.0648 304.355 55.6241C302.735 54.1829 301.925 52.1385 301.925 49.4896V37.9526H307.325V49.0448C307.325 50.4008 307.64 51.439 308.27 52.1596C308.922 52.8797 309.822 53.2402 310.97 53.2402C312.095 53.2402 312.973 52.8797 313.603 52.1596C314.255 51.439 314.581 50.4008 314.581 49.0448V37.9526H319.981V49.5216C319.981 52.1488 319.171 54.1829 317.551 55.6241C315.931 57.0648 313.737 57.7854 310.97 57.7854Z" fill="white"/>
<path d="M322.387 57.4674V43.1652H327.686V44.4048C328.676 43.3665 330.037 42.8474 331.77 42.8474C333.434 42.8474 334.74 43.3241 335.685 44.2776C336.652 45.2099 337.136 46.4812 337.136 48.0915V57.4674H331.871V49.2992C331.871 48.685 331.702 48.1974 331.365 47.8374C331.027 47.4562 330.532 47.2652 329.88 47.2652C329.34 47.2652 328.867 47.403 328.462 47.6783C328.08 47.9536 327.821 48.3353 327.686 48.8224V57.4674H322.387Z" fill="white"/>
<path d="M344.849 43.1653V57.4674H339.55V43.1653H344.849ZM345.22 39.2877C345.22 40.0717 344.928 40.7179 344.343 41.2265C343.757 41.7138 343.049 41.9575 342.217 41.9575C341.384 41.9575 340.675 41.7138 340.09 41.2265C339.505 40.7179 339.213 40.0717 339.213 39.2877C339.213 38.4826 339.505 37.8363 340.09 37.349C340.675 36.8404 341.384 36.5862 342.217 36.5862C343.049 36.5862 343.757 36.8404 344.343 37.349C344.928 37.8363 345.22 38.4826 345.22 39.2877Z" fill="white"/>
<path d="M347.522 57.4671V37.9526H352.956V53.0497H362.237V57.4671H347.522Z" fill="white"/>
<path d="M373.334 52.4775H378.228C377.958 54.1305 377.193 55.4332 375.933 56.3867C374.673 57.3191 373.064 57.7856 371.106 57.7856C368.789 57.7856 366.921 57.0965 365.504 55.7194C364.087 54.3423 363.378 52.541 363.378 50.3163C363.378 48.1127 364.098 46.3223 365.538 44.9451C366.978 43.5466 368.8 42.8474 371.005 42.8474C373.3 42.8474 375.089 43.5043 376.371 44.8179C377.654 46.1316 378.295 47.8689 378.295 50.0301V51.2698H368.474C368.654 53.0287 369.531 53.9078 371.106 53.9078C372.299 53.9078 373.042 53.4311 373.334 52.4775ZM371.005 46.7249C369.723 46.7249 368.913 47.4133 368.575 48.7909H373.165C373.121 48.1762 372.907 47.6783 372.524 47.297C372.142 46.9156 371.635 46.7249 371.005 46.7249Z" fill="white"/>
<path d="M379.968 57.4674V43.1652H385.267V44.4048C386.257 43.3665 387.618 42.8474 389.351 42.8474C391.015 42.8474 392.32 43.3241 393.265 44.2776C394.233 45.2099 394.717 46.4812 394.717 48.0915V57.4674H389.452V49.2992C389.452 48.685 389.283 48.1974 388.945 47.8374C388.608 47.4562 388.113 47.2652 387.461 47.2652C386.92 47.2652 386.448 47.403 386.043 47.6783C385.66 47.9536 385.402 48.3353 385.267 48.8224V57.4674H379.968Z" fill="white"/>
<path d="M406.851 57.4673V56.3232C406.468 56.7261 405.928 57.0752 405.23 57.3723C404.556 57.6476 403.847 57.7855 403.104 57.7855C400.989 57.7855 399.325 57.0861 398.11 55.6878C396.917 54.2678 396.321 52.4775 396.321 50.3162C396.321 48.155 396.917 46.3752 398.11 44.9768C399.325 43.5571 400.989 42.8474 403.104 42.8474C403.847 42.8474 404.556 42.9957 405.23 43.2923C405.928 43.5677 406.468 43.9067 406.851 44.3093V36.8086H412.149V57.4673H406.851ZM406.851 52.1913V48.4091C406.648 48.0279 406.333 47.7103 405.906 47.4561C405.478 47.2016 405.017 47.0745 404.522 47.0745C403.622 47.0745 402.913 47.3817 402.396 47.9964C401.878 48.5894 401.619 49.3627 401.619 50.3162C401.619 51.2486 401.878 52.0219 402.396 52.6366C402.913 53.2295 403.622 53.5266 404.522 53.5266C405.624 53.5266 406.401 53.0813 406.851 52.1913Z" fill="white"/>
<path d="M437.558 37.2666H433.391L428.78 47.8826L424.181 37.2666H420.062L428.792 57.0793L437.558 37.2666ZM445.628 41.0537C447.261 41.0537 448.642 42.4002 448.642 44.0592C448.642 44.6123 448.354 45.3216 447.802 46.1752C447.249 47.0288 446.528 47.9427 445.64 48.9042C443.875 50.8159 441.461 52.9199 439.312 54.4344L438.651 56.6466H452.461V52.7637H447.081C447.898 52.102 448.534 51.4049 449.266 50.6356C450.203 49.6374 450.984 48.5797 451.608 47.4613C452.233 46.3555 452.545 45.2134 452.545 44.0592C452.545 42.1597 451.86 40.5367 450.516 39.1782C449.17 37.8317 447.538 37.1584 445.64 37.1584C443.718 37.1584 442.086 37.8317 440.74 39.1782C439.396 40.5247 438.723 42.1597 438.723 44.0592H442.614C442.614 42.4122 443.971 41.0537 445.628 41.0537Z" fill="white"/>
<path d="M459.999 41.0318H466.863V58.3395H472.711V41.0318H479.611V36.0139H459.999V41.0318ZM489.474 52.6308C489.147 53.7583 488.239 54.2672 487.077 54.2672C485.443 54.2672 484.426 53.2129 484.244 51.2491H494.813V49.8314C494.813 44.9587 491.98 41.6135 486.968 41.6135C482.246 41.6135 478.76 45.1042 478.76 50.1582C478.76 55.2488 482.065 58.703 487.077 58.703C491.326 58.703 494.16 56.4124 494.74 52.6308H489.474ZM486.968 46.0495C488.385 46.0495 489.22 47.0677 489.293 48.413H484.353C484.716 46.8859 485.624 46.0495 486.968 46.0495ZM496.138 53.2856C496.646 56.8125 499.661 58.703 503.838 58.703C507.833 58.703 510.993 56.7758 510.993 53.2856C510.993 50.631 509.395 49.0673 506.416 48.3764L503.184 47.6129C502.421 47.4676 502.058 47.2131 502.058 46.704C502.058 45.9768 502.748 45.6132 503.583 45.6132C504.891 45.6132 505.399 46.2314 505.581 46.9222H510.847C510.339 43.6861 507.905 41.6135 503.438 41.6135C499.588 41.6135 496.465 43.6497 496.465 47.1404C496.465 50.0128 498.244 51.3218 500.968 51.9039L504.165 52.5581C504.963 52.7401 505.436 52.9582 505.436 53.5763C505.436 54.3399 504.709 54.7033 503.765 54.7033C502.748 54.7033 501.949 54.1945 501.695 53.2856H496.138ZM514.561 52.7035C514.561 56.8485 516.74 58.6669 520.59 58.6669C521.861 58.6669 523.096 58.4488 523.749 58.1575V53.3216C523.241 53.5397 522.551 53.6851 521.933 53.6851C520.808 53.6851 520.19 53.1402 520.19 51.8673V46.4132H523.604V41.9771H520.19V37.4683H514.561V41.9771H512.163V46.4132H514.561V52.7035ZM526.379 58.3395H532.081V48.4491C532.372 47.3222 533.316 46.6677 534.442 46.6677C535.895 46.6677 536.585 47.6495 536.585 48.9946V58.3395H542.25V47.6129C542.25 43.977 540.108 41.6135 536.476 41.6135C534.587 41.6135 532.989 42.3771 532.081 43.3952V41.9771H526.379V58.3395ZM555.055 52.6308C554.729 53.7583 553.821 54.2672 552.659 54.2672C551.024 54.2672 550.007 53.2129 549.825 51.2491H560.394V49.8314C560.394 44.9587 557.562 41.6135 552.549 41.6135C547.828 41.6135 544.341 45.1042 544.341 50.1582C544.341 55.2488 547.646 58.703 552.659 58.703C556.908 58.703 559.741 56.4124 560.322 52.6308H555.055ZM552.549 46.0495C553.966 46.0495 554.801 47.0677 554.874 48.413H549.934C550.297 46.8859 551.206 46.0495 552.549 46.0495ZM563.756 52.7035C563.756 56.8485 565.935 58.6669 569.785 58.6669C571.056 58.6669 572.291 58.4488 572.944 58.1575V53.3216C572.436 53.5397 571.746 53.6851 571.128 53.6851C570.003 53.6851 569.385 53.1402 569.385 51.8673V46.4132H572.799V41.9771H569.385V37.4683H563.756V41.9771H561.358V46.4132H563.756V52.7035Z" fill="white"/>
<path d="M679.607 115.509H682.223C682.279 115.509 682.305 115.509 682.309 115.433C682.331 115.155 682.331 114.875 682.309 114.597C682.309 114.542 682.284 114.52 682.227 114.52H677.022C676.957 114.52 676.94 114.542 676.94 114.606V115.406C676.94 115.509 676.94 115.509 677.043 115.509H679.607V115.509ZM682.017 113.585C682.025 113.564 682.025 113.542 682.017 113.522C681.973 113.423 681.922 113.328 681.862 113.239C681.771 113.087 681.665 112.946 681.543 112.82C681.486 112.744 681.42 112.676 681.345 112.618C680.973 112.287 680.53 112.053 680.054 111.935C679.814 111.878 679.569 111.851 679.323 111.854H677.013C676.948 111.854 676.94 111.881 676.94 111.939V113.535C676.94 113.603 676.94 113.621 677.022 113.621H681.986C681.986 113.621 682.029 113.612 682.038 113.585H682.017H682.017ZM682.017 116.444C681.944 116.436 681.87 116.436 681.797 116.444H677.026C676.962 116.444 676.94 116.444 676.94 116.534V118.095C676.94 118.167 676.94 118.185 677.026 118.185H679.229C679.334 118.193 679.44 118.186 679.543 118.163C679.862 118.139 680.177 118.066 680.477 117.947C680.586 117.907 680.691 117.856 680.79 117.794H680.821C681.337 117.513 681.756 117.072 682.021 116.531C682.021 116.531 682.051 116.463 682.017 116.445V116.444ZM676.076 118.994V118.967V117.919V117.564V116.508C676.076 116.449 676.076 116.44 676.007 116.44H675.073C675.021 116.44 675 116.44 675 116.368V115.514H675.998C676.054 115.514 676.076 115.514 676.076 115.438V114.592C676.076 114.538 676.076 114.525 676.007 114.525H675.073C675.021 114.525 675 114.525 675 114.453V113.662C675 113.612 675 113.599 675.069 113.599H675.994C676.058 113.599 676.076 113.599 676.076 113.514V111.09C676.076 111.018 676.076 111 676.162 111H679.388C679.622 111.01 679.855 111.037 680.085 111.081C680.559 111.173 681.015 111.35 681.432 111.602C681.708 111.772 681.962 111.978 682.189 112.214C682.359 112.399 682.513 112.599 682.649 112.812C682.784 113.028 682.897 113.259 682.985 113.5C682.996 113.563 683.054 113.605 683.114 113.595H683.884C683.983 113.595 683.983 113.595 683.987 113.694V114.431C683.987 114.503 683.961 114.521 683.892 114.521H683.298C683.238 114.521 683.221 114.521 683.225 114.602C683.249 114.876 683.249 115.151 683.225 115.425C683.225 115.501 683.225 115.51 683.307 115.51H683.987C684.017 115.551 683.987 115.591 683.987 115.632C683.991 115.684 683.991 115.737 683.987 115.789V116.333C683.987 116.409 683.965 116.432 683.901 116.432H683.087C683.031 116.421 682.976 116.459 682.963 116.518C682.769 117.044 682.459 117.515 682.059 117.894C681.913 118.031 681.759 118.161 681.599 118.28C681.426 118.384 681.259 118.492 681.082 118.577C680.757 118.73 680.417 118.842 680.067 118.914C679.735 118.976 679.398 119.004 679.06 118.999H676.074V118.995L676.076 118.994Z" fill="#FEFEFD"/>
</g>
<defs>
<filter id="filter0_f_2713_3498" x="138.702" y="-265.67" width="608.72" height="478.59" filterUnits="userSpaceOnUse" color-interpolation-filters="sRGB">
<feFlood flood-opacity="0" result="BackgroundImageFix"/>
<feBlend mode="normal" in="SourceGraphic" in2="BackgroundImageFix" result="shape"/>
<feGaussianBlur stdDeviation="1.34875" result="effect1_foregroundBlur_2713_3498"/>
</filter>
<linearGradient id="paint0_linear_2713_3498" x1="456.56" y1="240.151" x2="449.842" y2="-277.908" gradientUnits="userSpaceOnUse">
<stop offset="0.247917" stop-color="white" stop-opacity="0"/>
<stop offset="0.607292" stop-color="#D0D7FF" stop-opacity="0.16"/>
<stop offset="1" stop-color="#3378FF" stop-opacity="0.12"/>
</linearGradient>
<clipPath id="clip0_2713_3498">
<rect width="877" height="140.229" fill="white" transform="translate(0 0.385742)"/>
</clipPath>
</defs>
</svg>
